<?xml version="1.0" standalone="no"?>
<!DOCTYPE svg PUBLIC "-//W3C//DTD SVG 20010904//EN"
 "http://www.w3.org/TR/2001/REC-SVG-20010904/DTD/svg10.dtd">
<svg version="1.0" xmlns="http://www.w3.org/2000/svg"
 width="800.000000pt" height="800.000000pt" viewBox="0 0 800.000000 800.000000"
 preserveAspectRatio="xMidYMid meet">
<metadata>
Created by potrace 1.14, written by Peter Selinger 2001-2017
</metadata>
<g transform="translate(0.000000,800.000000) scale(0.100000,-0.100000)"
fill="#000000" stroke="none">
<path d="M3040 6900 c-56 -22 -132 -97 -163 -160 -22 -47 -34 -59 -77 -79 -27
-13 -63 -35 -78 -48 -36 -33 -76 -49 -198 -84 -87 -24 -166 -58 -184 -79 -3
-3 -27 -24 -55 -45 -27 -22 -56 -45 -62 -52 -17 -15 -103 -47 -184 -68 -90
-24 -95 -28 -135 -107 -20 -40 -48 -84 -63 -98 -46 -44 -96 -112 -150 -205
-29 -49 -57 -97 -62 -105 -5 -8 -13 -25 -19 -37 -5 -12 -33 -66 -62 -120 -30
-54 -64 -129 -76 -166 -12 -37 -33 -80 -47 -95 -15 -16 -26 -43 -30 -72 -12
-98 -27 -178 -46 -237 -11 -34 -21 -76 -21 -93 -1 -17 -4 -33 -8 -35 -5 -3 -4
-20 0 -39 16 -70 9 -258 -12 -326 -11 -36 -23 -69 -26 -75 -6 -9 -7 -46 -2
-62 6 -21 7 -34 8 -109 2 -74 4 -83 30 -108 41 -40 118 -94 168 -118 44 -22
65 -56 62 -103 -1 -11 2 -47 6 -80 5 -33 9 -65 10 -72 1 -6 11 -27 21 -47 14
-25 17 -40 10 -50 -50 -67 -49 -66 -37 -115 9 -35 23 -55 59 -86 112 -96 294
-289 321 -341 11 -22 175 -267 210 -314 7 -9 15 -28 17 -40 4 -20 13 -51 30
-108 3 -7 4 -14 5 -17 0 -3 7 -19 15 -35 8 -16 15 -32 16 -35 1 -29 74 -151
117 -195 35 -36 58 -73 57 -90 -4 -33 -5 -37 -17 -37 -7 0 -87 -35 -178 -77
-91 -43 -183 -86 -205 -96 -22 -10 -78 -36 -125 -58 -47 -22 -106 -49 -132
-61 -72 -33 -279 -114 -426 -167 -85 -31 -147 -60 -170 -80 -37 -31 -132 -160
-141 -192 -12 -38 -3 -203 14 -255 37 -117 153 -197 330 -227 93 -16 419 -10
437 8 6 6 18 12 24 12 7 0 23 4 36 9 13 5 28 9 33 11 6 1 17 7 25 13 8 7 33
21 55 32 48 23 125 72 358 227 98 65 181 118 185 118 3 0 13 6 21 14 9 8 77
46 151 84 74 38 176 91 225 117 90 48 162 85 415 218 74 39 194 101 265 137
123 63 273 141 498 259 54 28 117 62 140 75 23 13 68 38 100 55 72 39 126 69
302 168 77 43 165 90 195 105 74 36 211 98 215 98 2 0 46 20 99 45 53 25 99
45 101 45 2 0 52 23 110 50 58 27 108 50 110 50 2 0 52 23 112 51 59 28 113
52 118 53 22 5 554 265 565 276 3 3 25 15 50 28 100 50 290 159 300 172 3 4
16 13 30 20 87 45 238 198 276 279 9 20 21 42 27 50 6 7 12 18 14 25 1 6 9 30
17 53 29 78 38 182 34 372 -3 151 -7 192 -21 218 -20 39 -42 52 -79 48 -26 -3
-97 -33 -108 -45 -3 -3 -21 -17 -40 -31 -19 -15 -48 -38 -63 -53 -45 -42 -152
-106 -311 -186 -82 -41 -154 -79 -160 -83 -6 -4 -54 -29 -106 -56 -52 -26
-167 -85 -255 -131 -326 -169 -407 -210 -414 -207 -33 18 -142 68 -146 68 -2
0 -24 8 -47 17 -24 10 -52 17 -63 15 -107 -14 -123 -12 -195 23 -39 18 -103
54 -141 79 -38 25 -74 45 -78 45 -5 0 -11 3 -13 8 -1 4 -25 22 -53 41 -27 19
-86 71 -131 115 -44 45 -114 110 -155 146 -122 107 -172 164 -206 231 -31 62
-137 179 -162 179 -6 0 -11 4 -11 8 0 5 -21 24 -47 42 -84 58 -158 115 -161
123 -2 4 -10 7 -18 7 -8 0 -14 4 -14 8 0 26 -185 81 -267 80 -38 0 -75 2 -83
5 -8 4 -31 8 -50 10 -20 2 -40 5 -45 8 -6 3 -39 6 -75 8 -36 2 -66 4 -68 6
-10 9 52 105 104 160 28 30 60 84 64 110 6 30 58 157 84 205 76 140 77 142
141 165 33 12 67 24 75 28 8 3 40 8 70 11 81 9 111 14 148 25 17 5 32 8 32 6
0 -8 105 48 124 67 11 10 36 26 55 37 20 10 63 33 96 51 87 49 178 94 195 97
8 2 47 5 85 7 77 4 118 11 149 28 12 6 23 11 26 11 3 0 15 3 27 8 44 16 143
40 190 44 27 2 59 7 73 10 14 3 45 8 70 11 25 3 58 7 73 9 15 2 44 16 64 32
34 27 91 64 96 62 1 0 18 2 37 5 19 3 59 8 89 10 40 3 57 9 64 22 32 57 153
127 226 130 101 5 164 26 180 60 14 30 14 77 1 124 -5 19 -11 40 -12 45 -1 6
-10 19 -20 29 -10 11 -18 23 -18 26 0 17 -100 59 -180 75 -8 2 -36 8 -62 14
-26 6 -74 9 -105 6 -57 -5 -67 -10 -263 -111 -30 -16 -64 -37 -74 -46 -31 -28
-84 -41 -135 -34 -25 4 -68 9 -96 12 -27 3 -71 9 -96 13 -70 12 -150 6 -186
-12 -29 -16 -37 -16 -90 -2 -55 15 -127 27 -148 27 -14 -1 -151 -10 -253 -17
-46 -4 -115 -17 -153 -30 -38 -12 -69 -21 -69 -18 0 3 -6 1 -12 -5 -11 -8 -29
-14 -98 -29 -8 -2 -30 -6 -49 -8 -19 -3 -40 -10 -47 -16 -26 -22 -46 -3 -83
80 -47 104 -66 126 -122 141 -24 6 -79 25 -122 42 -71 27 -86 29 -178 26 -58
-2 -117 -9 -139 -18z m659 -2881 c33 -32 63 -69 66 -81 7 -23 90 -108 106
-108 4 0 12 -6 16 -12 4 -7 31 -31 58 -53 28 -21 52 -42 55 -45 20 -21 138
-105 191 -136 74 -43 193 -131 227 -167 l23 -25 -34 -26 c-31 -24 -39 -26 -75
-17 -23 5 -42 7 -44 5 -2 -1 -39 24 -83 56 -86 64 -140 93 -195 105 -19 4 -59
18 -88 31 -29 13 -64 24 -77 24 -29 0 -105 70 -105 97 0 29 -66 116 -152 201
-32 31 -43 36 -78 33 -27 -2 -51 4 -73 18 -31 19 -147 133 -147 145 0 3 14 0
30 -6 35 -12 181 0 197 16 2 1 30 3 63 4 l59 1 60 -60z m-1094 -29 c30 -11
247 -225 285 -280 30 -43 55 -66 205 -188 66 -53 147 -123 180 -155 33 -33 71
-65 85 -72 43 -24 240 -237 269 -293 13 -25 7 -42 -15 -42 -8 0 -49 -21 -92
-47 -72 -44 -82 -48 -142 -47 -36 0 -76 6 -90 14 -24 13 -40 16 -90 19 -14 0
-40 10 -58 21 -30 18 -32 22 -18 36 18 17 25 88 11 102 -7 7 -34 -13 -88 -66
-37 -34 -61 -50 -71 -46 -9 3 -16 12 -16 19 0 7 -14 29 -30 50 -17 21 -39 57
-50 79 -11 23 -35 62 -54 89 -29 40 -73 135 -80 172 -1 6 -4 15 -7 20 -5 8
-14 36 -24 75 -5 23 -49 92 -60 96 -14 6 -51 73 -47 87 1 5 -7 41 -20 80 -12
40 -23 77 -24 82 -9 36 -47 133 -60 154 -16 23 -15 25 2 38 21 16 63 17 99 3z"/>
</g>
</svg>
